<svg xmlns="http://www.w3.org/2000/svg" viewBox="0 0 512 512">
  <rect width="512" height="512" rx="108" fill="#1A56E8"/>
  <g fill="#fff" transform="translate(-82 -48) scale(.66)">
    <path d="M357.52 526.965C372.095 526.238 391.063 526.773 405.945 526.797L482.819 526.933C486.779 562.735 508.082 593.495 537.705 613.179C564.503 630.944 597.231 637.413 628.773 631.18C665.216 623.653 688.007 603.054 707.712 573.273C702.914 586.82 694.764 600.363 687.05 612.378C685.016 615.334 682.874 618.214 680.627 621.012C649.395 660.143 607.011 684.987 556.954 690.564C508.584 695.706 460.176 681.202 422.603 650.309C394.709 627.801 373.76 596.483 363.699 561.993C360.199 549.992 358.817 539.329 357.52 526.965Z"/>
    <path d="M319.421 444.79C338.526 400.03 374.433 364.554 419.422 345.993C462.625 328.204 511.125 328.308 554.251 346.28C615.657 372.175 662.849 428.356 666.792 496.442L541.748 496.482C536.961 464.25 519.372 435.313 492.964 416.223C437.504 375.626 364.416 384.789 323.637 441.087C322.631 442.485 321.648 443.9 320.688 445.33L319.421 444.79Z"/>
    <path d="M650.135 527.25L716.935 527.38C716.506 530.477 715.739 533.97 714.971 537.002C708.396 562.358 692.186 584.149 669.791 597.737C645.815 611.987 620.566 614.733 593.75 607.882C580.209 603.672 569.646 598.983 558.397 589.926C539.819 574.968 524.761 551.404 522.273 527.382L650.135 527.25Z"/>
    <path d="M398.694 413.701C450.521 409.865 494.729 444.357 502.1 496.014L412.605 495.889L308.797 495.975C311.408 478.617 318.754 462.315 330.027 448.861C348.045 427.313 371.025 416.211 398.694 413.701Z"/>
  </g>
</svg>
